<svg width="513" height="513" viewBox="0 0 513 513" fill="none" xmlns="http://www.w3.org/2000/svg">
<path fill-rule="evenodd" clip-rule="evenodd" d="M415.221 97.6438C394.512 76.9245 369.909 60.5059 342.828 49.3333C315.748 38.1607 286.725 32.4547 257.431 32.5438C134.491 32.5438 34.4111 132.124 34.3611 254.544C34.3067 293.525 44.582 331.825 64.1411 365.544L32.4911 480.544L150.741 449.674C183.473 467.406 220.114 476.687 257.341 476.674H257.431C380.361 476.674 480.431 377.084 480.491 254.674C480.566 225.479 474.833 196.562 463.628 169.603C452.423 142.645 435.968 118.184 415.221 97.6438ZM257.431 439.204H257.351C224.165 439.214 191.582 430.332 162.991 413.484L156.221 409.484L86.0511 427.804L104.781 359.714L100.371 352.714C81.8149 323.336 71.9836 289.292 72.0211 254.544C72.0211 152.814 155.231 70.0438 257.501 70.0438C306.561 69.9562 353.647 89.3591 388.402 123.985C423.157 158.611 442.736 205.624 442.831 254.684C442.791 356.424 359.621 439.204 257.431 439.204ZM359.121 301.014C353.551 298.234 326.121 284.814 321.041 282.964C315.961 281.114 312.211 280.184 308.501 285.744C304.791 291.304 294.101 303.744 290.851 307.494C287.601 311.244 284.351 311.654 278.781 308.874C273.211 306.094 255.241 300.244 233.951 281.344C217.381 266.634 206.201 248.474 202.951 242.924C199.701 237.374 202.601 234.364 205.391 231.604C207.901 229.114 210.961 225.124 213.751 221.884C216.541 218.644 217.471 216.324 219.321 212.624C221.171 208.924 220.251 205.684 218.861 202.914C217.471 200.144 206.321 172.834 201.681 161.724C197.151 150.904 192.561 152.374 189.141 152.204C185.891 152.044 182.141 152.004 178.451 152.004C175.63 152.077 172.855 152.731 170.298 153.925C167.741 155.12 165.458 156.828 163.591 158.944C158.481 164.504 144.081 177.944 144.081 205.224C144.081 232.504 164.081 258.904 166.841 262.604C169.601 266.304 206.141 322.334 262.051 346.364C272.433 350.81 283.041 354.709 293.831 358.044C307.181 362.264 319.331 361.674 328.931 360.244C339.641 358.654 361.931 346.824 366.561 333.864C371.191 320.904 371.201 309.804 369.811 307.494C368.421 305.184 364.701 303.784 359.121 301.014Z" fill="white"/>
</svg>
