<svg width="513" height="513" viewBox="0 0 513 513" fill="none" xmlns="http://www.w3.org/2000/svg">
<path d="M496.491 128.594C496.509 116.264 492.965 104.191 486.285 93.8276C479.604 83.464 470.073 75.2507 458.836 70.1752C447.599 65.0997 435.135 63.3781 422.943 65.2176C410.751 67.057 399.35 72.379 390.111 80.5438C385.109 84.9562 380.821 90.1175 377.401 95.8438V95.9038C376.861 96.8038 376.351 97.7238 375.851 98.6438L375.611 99.1338C375.191 99.9238 374.801 100.724 374.421 101.534C374.301 101.784 374.191 102.034 374.081 102.284C373.751 103.014 373.431 103.754 373.131 104.504C373.001 104.814 372.881 105.124 372.761 105.434C372.491 106.134 372.231 106.834 371.981 107.544L371.621 108.604C371.401 109.284 371.191 109.974 370.991 110.664C370.871 111.054 370.761 111.434 370.661 111.824C370.471 112.494 370.311 113.174 370.151 113.824C370.051 114.234 369.951 114.644 369.861 115.054C369.721 115.734 369.591 116.424 369.471 117.054C369.391 117.474 369.311 117.894 369.241 118.314C369.131 119.014 369.041 119.724 368.951 120.434C368.901 120.844 368.841 121.254 368.791 121.674C368.711 122.444 368.661 123.214 368.601 123.994C368.601 124.354 368.541 124.714 368.521 125.074C368.461 126.214 368.421 127.354 368.421 128.514C368.421 129.514 368.421 130.514 368.501 131.454V132.094C368.554 133.034 368.624 133.974 368.711 134.914L368.771 135.394C368.861 136.244 368.961 137.084 369.091 137.914C369.091 138.084 369.091 138.264 369.161 138.434C369.301 139.344 369.471 140.244 369.651 141.144C369.651 141.364 369.741 141.574 369.781 141.794C369.961 142.654 370.161 143.514 370.381 144.364V144.554C370.611 145.444 370.861 146.314 371.131 147.184L371.341 147.864C371.611 148.714 371.891 149.544 372.191 150.374C372.251 150.554 372.321 150.734 372.391 150.914C372.661 151.624 372.941 152.334 373.231 153.034C373.311 153.244 373.391 153.444 373.481 153.644C373.821 154.434 374.171 155.224 374.541 156.004L374.871 156.674C375.221 157.374 375.571 158.074 375.941 158.764C381.161 168.465 388.784 176.663 398.081 182.574C400.521 184.133 403.068 185.519 405.701 186.724L406.091 186.904C407.864 187.704 409.674 188.424 411.521 189.064L412.471 189.384L413.971 189.854C414.421 189.994 414.871 190.114 415.331 190.244L417.251 190.744L418.981 191.144L420.131 191.374L421.961 191.704L422.901 191.854C423.801 191.984 424.711 192.104 425.621 192.204L426.391 192.274C427.121 192.334 427.861 192.394 428.601 192.434L429.461 192.484C430.461 192.484 431.401 192.564 432.381 192.564C433.541 192.564 434.681 192.564 435.821 192.464L436.901 192.384C437.681 192.324 438.451 192.274 439.221 192.194L440.471 192.034C441.171 191.944 441.881 191.854 442.581 191.744L443.841 191.514C444.521 191.394 445.211 191.264 445.841 191.124L447.071 190.834C447.751 190.674 448.431 190.514 449.071 190.324C449.461 190.224 449.841 190.114 450.231 189.994C450.921 189.794 451.611 189.584 452.291 189.364L453.351 189.004C454.061 188.754 454.761 188.494 455.461 188.224L456.391 187.854C457.141 187.554 457.881 187.234 458.611 186.904L459.361 186.564C460.171 186.184 460.971 185.794 461.761 185.374L462.251 185.134C463.171 184.634 464.091 184.134 464.991 183.584H465.051C470.824 180.191 476.033 175.919 480.491 170.924C490.817 159.242 496.508 144.185 496.491 128.594Z" fill="white"/>
<path d="M371.871 203.074L266.311 285.174C263.503 287.357 260.048 288.542 256.491 288.542C252.934 288.542 249.479 287.357 246.671 285.174L102.671 173.174C100.979 171.896 99.5581 170.295 98.4904 168.463C97.4227 166.632 96.7297 164.606 96.4516 162.504C96.1735 160.403 96.3158 158.267 96.8704 156.22C97.425 154.174 98.3807 152.258 99.6821 150.585C100.983 148.911 102.604 147.512 104.451 146.471C106.297 145.429 108.332 144.764 110.438 144.516C112.543 144.267 114.677 144.44 116.716 145.023C118.754 145.606 120.656 146.589 122.311 147.914L256.491 252.274L350.711 178.994C341.594 164.245 336.649 147.3 336.4 129.964C336.152 112.627 340.611 95.5472 349.301 80.5438H88.4911C73.6438 80.5597 59.4092 86.4648 48.9107 96.9634C38.4121 107.462 32.507 121.697 32.4911 136.544V376.544C32.507 391.391 38.4121 405.626 48.9107 416.124C59.4092 426.623 73.6438 432.528 88.4911 432.544H424.491C439.338 432.528 453.573 426.623 464.072 416.124C474.57 405.626 480.475 391.391 480.491 376.544V211.734C463.648 221.49 444.234 225.887 424.831 224.34C405.428 222.793 386.956 215.375 371.871 203.074Z" fill="white"/>
</svg>
